<svg width="28" height="25" viewBox="0 0 28 25" fill="none" xmlns="http://www.w3.org/2000/svg">
<path d="M12.3132 1.71379C12.6097 1.13761 12.3861 0.429601 11.8174 0.131749C11.2486 -0.166104 10.5389 0.0585061 10.2424 0.629797L5.71667 9.37494H1.55556C0.695139 9.37494 0 10.0732 0 10.9375C0 11.8017 0.695139 12.5 1.55556 12.5L4.07847 22.6318C4.42361 24.0234 5.66806 25 7.09722 25H20.9028C22.3319 25 23.5764 24.0234 23.9215 22.6318L26.4444 12.5C27.3049 12.5 28 11.8017 28 10.9375C28 10.0732 27.3049 9.37494 26.4444 9.37494H22.2833L17.7576 0.629797C17.4611 0.0585061 16.7562 -0.166104 16.1826 0.131749C15.609 0.429601 15.3903 1.13761 15.6868 1.71379L19.6535 9.37494H8.34653L12.3132 1.71379ZM9.33333 14.8437V19.5312C9.33333 19.9609 8.98333 20.3125 8.55556 20.3125C8.12778 20.3125 7.77778 19.9609 7.77778 19.5312V14.8437C7.77778 14.414 8.12778 14.0625 8.55556 14.0625C8.98333 14.0625 9.33333 14.414 9.33333 14.8437ZM14 14.0625C14.4278 14.0625 14.7778 14.414 14.7778 14.8437V19.5312C14.7778 19.9609 14.4278 20.3125 14 20.3125C13.5722 20.3125 13.2222 19.9609 13.2222 19.5312V14.8437C13.2222 14.414 13.5722 14.0625 14 14.0625ZM20.2222 14.8437V19.5312C20.2222 19.9609 19.8722 20.3125 19.4444 20.3125C19.0167 20.3125 18.6667 19.9609 18.6667 19.5312V14.8437C18.6667 14.414 19.0167 14.0625 19.4444 14.0625C19.8722 14.0625 20.2222 14.414 20.2222 14.8437Z" fill="white"/>
</svg>
