<svg width="22" height="26" viewBox="0 0 22 26" fill="none" xmlns="http://www.w3.org/2000/svg">
<g clip-path="url(#clip0_297_519)">
<path d="M11 12.5805C12.6671 12.5805 14.2659 11.9177 15.4447 10.7381C16.6235 9.55845 17.2857 7.9585 17.2857 6.29023C17.2857 4.62196 16.6235 3.02201 15.4447 1.84237C14.2659 0.662719 12.6671 0 11 0C9.33292 0 7.73413 0.662719 6.55533 1.84237C5.37653 3.02201 4.71429 4.62196 4.71429 6.29023C4.71429 7.9585 5.37653 9.55845 6.55533 10.7381C7.73413 11.9177 9.33292 12.5805 11 12.5805ZM8.7558 14.9393C3.91875 14.9393 0 18.8609 0 23.7014C0 24.5073 0.653125 25.1609 1.45848 25.1609H20.5415C21.3469 25.1609 22 24.5073 22 23.7014C22 18.8609 18.0813 14.9393 13.2442 14.9393H8.7558Z" fill="black"/>
</g>
<defs>
<clipPath id="clip0_297_519">
<rect width="22" height="25.1609" fill="white"/>
</clipPath>
</defs>
</svg>
